<?xml version="1.0" standalone="no"?>
<!DOCTYPE svg PUBLIC "-//W3C//DTD SVG 20010904//EN"
 "http://www.w3.org/TR/2001/REC-SVG-20010904/DTD/svg10.dtd">
<svg version="1.0" xmlns="http://www.w3.org/2000/svg"
 width="34.000000pt" height="34.000000pt" viewBox="0 0 34.000000 34.000000"
 preserveAspectRatio="xMidYMid meet">

<g transform="translate(0.000000,34.000000) scale(0.100000,-0.100000)"
fill="#000000" stroke="none">
<path d="M70 280 c0 -6 40 -10 101 -10 64 0 98 4 94 10 -8 13 -195 13 -195 0z"/>
<path d="M20 251 c0 -5 9 -53 20 -106 11 -53 20 -99 20 -101 0 -2 49 -4 109
-4 l108 0 17 88 c10 48 20 97 23 110 l5 22 -151 0 c-83 0 -151 -4 -151 -9z
m275 -33 c-3 -13 -11 -52 -18 -88 l-13 -65 -92 -3 c-104 -3 -90 -16 -116 111
l-14 67 129 0 c129 0 129 0 124 -22z"/>
<path d="M127 192 c-29 -32 -21 -69 20 -91 57 -30 113 49 65 92 -24 22 -65 21
-85 -1z m77 -18 c11 -27 7 -43 -14 -54 -40 -22 -80 26 -48 58 17 17 55 15 62
-4z"/>
</g>
</svg>
